<?xml version="1.0" encoding="UTF-8"?>
<svg width="792px" height="381px" viewBox="0 0 792 381" version="1.1" xmlns="http://www.w3.org/2000/svg" xmlns:xlink="http://www.w3.org/1999/xlink">
    <!-- Generator: Sketch 63 (92445) - https://sketch.com -->
    <title>knnh</title>
    <desc>Created with Sketch.</desc>
    <g id="knnh" stroke="none" stroke-width="1" fill="none" fill-rule="evenodd">
        <rect fill="#FFFFFF" x="0" y="0" width="792" height="381"></rect>
        <g id="axis/Blank" transform="translate(222.000000, 40.000000)" stroke="#636F80" stroke-width="2">
            <polyline id="Path-6" points="0 0 0 300 348 300"></polyline>
        </g>
        <path d="M436.688,81 L437.822,77.418 L442.124,77.418 L443.24,81 L444.842,81 L440.864,69.192 L439.136,69.192 L435.158,81 L436.688,81 Z M441.746,76.194 L438.218,76.194 L438.776,74.412 C439.19,73.098 439.568,71.802 439.928,70.434 L440,70.434 C440.378,71.802 440.756,73.098 441.188,74.412 L441.746,76.194 Z" id="A" fill="#333333" fill-rule="nonzero"></path>
        <circle id="Oval" stroke="#73B0DE" stroke-width="3" cx="401" cy="191" r="76"></circle>
        <circle id="Oval" fill="#73B0DE" transform="translate(401.000000, 191.000000) scale(-1, 1) translate(-401.000000, -191.000000) " cx="401" cy="191" r="14"></circle>
        <g id="Group-6" transform="translate(267.000000, 73.000000)">
            <circle id="Oval-Copy" stroke="#8D4390" stroke-width="2" transform="translate(14.000000, 14.000000) scale(-1, 1) translate(-14.000000, -14.000000) " cx="14" cy="14" r="14"></circle>
            <path d="M10.688,20 L11.822,16.418 L16.124,16.418 L17.24,20 L18.842,20 L14.864,8.192 L13.136,8.192 L9.158,20 L10.688,20 Z M15.746,15.194 L12.218,15.194 L12.776,13.412 C13.19,12.098 13.568,10.802 13.928,9.434 L14,9.434 C14.378,10.802 14.756,12.098 15.188,13.412 L15.746,15.194 Z" id="A" fill="#333333" fill-rule="nonzero"></path>
        </g>
        <g id="Group-6-Copy" transform="translate(273.000000, 150.000000)">
            <circle id="Oval-Copy" stroke="#8D4390" stroke-width="2" transform="translate(14.000000, 14.000000) scale(-1, 1) translate(-14.000000, -14.000000) " cx="14" cy="14" r="14"></circle>
            <path d="M10.688,20 L11.822,16.418 L16.124,16.418 L17.24,20 L18.842,20 L14.864,8.192 L13.136,8.192 L9.158,20 L10.688,20 Z M15.746,15.194 L12.218,15.194 L12.776,13.412 C13.19,12.098 13.568,10.802 13.928,9.434 L14,9.434 C14.378,10.802 14.756,12.098 15.188,13.412 L15.746,15.194 Z" id="A" fill="#333333" fill-rule="nonzero"></path>
        </g>
        <g id="Group-6-Copy-2" transform="translate(341.000000, 169.000000)">
            <circle id="Oval-Copy" stroke="#8D4390" stroke-width="2" transform="translate(14.000000, 14.000000) scale(-1, 1) translate(-14.000000, -14.000000) " cx="14" cy="14" r="14"></circle>
            <circle id="Oval-Copy-2" stroke="#8D4390" stroke-width="2" transform="translate(90.000000, 53.000000) scale(-1, 1) translate(-90.000000, -53.000000) " cx="90" cy="53" r="14"></circle>
            <path d="M10.688,20 L11.822,16.418 L16.124,16.418 L17.24,20 L18.842,20 L14.864,8.192 L13.136,8.192 L9.158,20 L10.688,20 Z M15.746,15.194 L12.218,15.194 L12.776,13.412 C13.19,12.098 13.568,10.802 13.928,9.434 L14,9.434 C14.378,10.802 14.756,12.098 15.188,13.412 L15.746,15.194 Z" id="A" fill="#333333" fill-rule="nonzero"></path>
            <path d="M86.688,59 L87.822,55.418 L92.124,55.418 L93.24,59 L94.842,59 L90.864,47.192 L89.136,47.192 L85.158,59 L86.688,59 Z M91.746,54.194 L88.218,54.194 L88.776,52.412 C89.19,51.098 89.568,49.802 89.928,48.434 L90,48.434 C90.378,49.802 90.756,51.098 91.188,52.412 L91.746,54.194 Z" id="A" fill="#333333" fill-rule="nonzero"></path>
        </g>
        <g id="Group-6-Copy-3" transform="translate(279.000000, 203.000000)">
            <circle id="Oval-Copy" stroke="#8D4390" stroke-width="2" transform="translate(14.000000, 14.000000) scale(-1, 1) translate(-14.000000, -14.000000) " cx="14" cy="14" r="14"></circle>
            <path d="M10.688,20 L11.822,16.418 L16.124,16.418 L17.24,20 L18.842,20 L14.864,8.192 L13.136,8.192 L9.158,20 L10.688,20 Z M15.746,15.194 L12.218,15.194 L12.776,13.412 C13.19,12.098 13.568,10.802 13.928,9.434 L14,9.434 C14.378,10.802 14.756,12.098 15.188,13.412 L15.746,15.194 Z" id="A" fill="#333333" fill-rule="nonzero"></path>
        </g>
        <g id="Group-6-Copy-4" transform="translate(250.000000, 250.000000)">
            <circle id="Oval-Copy" stroke="#8D4390" stroke-width="2" transform="translate(14.000000, 14.000000) scale(-1, 1) translate(-14.000000, -14.000000) " cx="14" cy="14" r="14"></circle>
            <path d="M10.688,20 L11.822,16.418 L16.124,16.418 L17.24,20 L18.842,20 L14.864,8.192 L13.136,8.192 L9.158,20 L10.688,20 Z M15.746,15.194 L12.218,15.194 L12.776,13.412 C13.19,12.098 13.568,10.802 13.928,9.434 L14,9.434 C14.378,10.802 14.756,12.098 15.188,13.412 L15.746,15.194 Z" id="A" fill="#333333" fill-rule="nonzero"></path>
        </g>
        <g id="Group-6-Copy-5" transform="translate(365.000000, 224.000000)">
            <circle id="Oval-Copy" stroke="#8D4390" stroke-width="2" transform="translate(14.000000, 14.000000) scale(-1, 1) translate(-14.000000, -14.000000) " cx="14" cy="14" r="14"></circle>
            <path d="M10.688,20 L11.822,16.418 L16.124,16.418 L17.24,20 L18.842,20 L14.864,8.192 L13.136,8.192 L9.158,20 L10.688,20 Z M15.746,15.194 L12.218,15.194 L12.776,13.412 C13.19,12.098 13.568,10.802 13.928,9.434 L14,9.434 C14.378,10.802 14.756,12.098 15.188,13.412 L15.746,15.194 Z" id="A" fill="#333333" fill-rule="nonzero"></path>
        </g>
        <g id="Group-6-Copy-6" transform="translate(351.000000, 69.000000)">
            <circle id="Oval-Copy" stroke="#8D4390" stroke-width="2" transform="translate(14.000000, 14.000000) scale(-1, 1) translate(-14.000000, -14.000000) " cx="14" cy="14" r="14"></circle>
            <path d="M10.688,20 L11.822,16.418 L16.124,16.418 L17.24,20 L18.842,20 L14.864,8.192 L13.136,8.192 L9.158,20 L10.688,20 Z M15.746,15.194 L12.218,15.194 L12.776,13.412 C13.19,12.098 13.568,10.802 13.928,9.434 L14,9.434 C14.378,10.802 14.756,12.098 15.188,13.412 L15.746,15.194 Z" id="A" fill="#333333" fill-rule="nonzero"></path>
        </g>
        <g id="Group-6-Copy-7" transform="translate(512.000000, 200.000000)">
            <circle id="Oval-Copy" stroke="#8D4390" stroke-width="2" transform="translate(14.000000, 14.000000) scale(-1, 1) translate(-14.000000, -14.000000) " cx="14" cy="14" r="14"></circle>
            <path d="M10.688,20 L11.822,16.418 L16.124,16.418 L17.24,20 L18.842,20 L14.864,8.192 L13.136,8.192 L9.158,20 L10.688,20 Z M15.746,15.194 L12.218,15.194 L12.776,13.412 C13.19,12.098 13.568,10.802 13.928,9.434 L14,9.434 C14.378,10.802 14.756,12.098 15.188,13.412 L15.746,15.194 Z" id="A" fill="#333333" fill-rule="nonzero"></path>
        </g>
        <g id="Group-6-Copy-8" transform="translate(461.000000, 257.000000)">
            <circle id="Oval-Copy" stroke="#8D4390" stroke-width="2" transform="translate(14.000000, 14.000000) scale(-1, 1) translate(-14.000000, -14.000000) " cx="14" cy="14" r="14"></circle>
            <path d="M10.688,20 L11.822,16.418 L16.124,16.418 L17.24,20 L18.842,20 L14.864,8.192 L13.136,8.192 L9.158,20 L10.688,20 Z M15.746,15.194 L12.218,15.194 L12.776,13.412 C13.19,12.098 13.568,10.802 13.928,9.434 L14,9.434 C14.378,10.802 14.756,12.098 15.188,13.412 L15.746,15.194 Z" id="A" fill="#333333" fill-rule="nonzero"></path>
        </g>
        <g id="Group-6-Copy-9" transform="translate(406.000000, 285.000000)">
            <circle id="Oval-Copy" stroke="#8D4390" stroke-width="2" transform="translate(14.000000, 14.000000) scale(-1, 1) translate(-14.000000, -14.000000) " cx="14" cy="14" r="14"></circle>
            <path d="M10.688,20 L11.822,16.418 L16.124,16.418 L17.24,20 L18.842,20 L14.864,8.192 L13.136,8.192 L9.158,20 L10.688,20 Z M15.746,15.194 L12.218,15.194 L12.776,13.412 C13.19,12.098 13.568,10.802 13.928,9.434 L14,9.434 C14.378,10.802 14.756,12.098 15.188,13.412 L15.746,15.194 Z" id="A" fill="#333333" fill-rule="nonzero"></path>
        </g>
        <g id="Group-5" transform="translate(301.000000, 94.000000)">
            <circle id="Oval-Copy-11" stroke="#4EAC58" stroke-width="2" transform="translate(14.000000, 14.000000) scale(-1, 1) translate(-14.000000, -14.000000) " cx="14" cy="14" r="14"></circle>
            <path d="M14.108,20 C16.736,20 18.572,18.866 18.572,16.544 C18.572,14.924 17.582,13.988 16.178,13.718 L16.178,13.646 C17.276,13.286 17.906,12.242 17.906,11.072 C17.906,9.002 16.232,8.192 13.838,8.192 L10.328,8.192 L10.328,20 L14.108,20 Z M13.586,13.214 L11.84,13.214 L11.84,9.398 L13.64,9.398 C15.476,9.398 16.412,9.902 16.412,11.27 C16.412,12.476 15.584,13.214 13.586,13.214 Z M13.892,18.794 L11.84,18.794 L11.84,14.366 L13.892,14.366 C15.944,14.366 17.078,15.032 17.078,16.49 C17.078,18.074 15.908,18.794 13.892,18.794 Z" id="B" fill="#333333" fill-rule="nonzero"></path>
        </g>
        <g id="Group-5-Copy-2" transform="translate(369.000000, 124.000000)">
            <circle id="Oval-Copy-11" stroke="#4EAC58" stroke-width="2" transform="translate(14.000000, 14.000000) scale(-1, 1) translate(-14.000000, -14.000000) " cx="14" cy="14" r="14"></circle>
            <path d="M14.108,20 C16.736,20 18.572,18.866 18.572,16.544 C18.572,14.924 17.582,13.988 16.178,13.718 L16.178,13.646 C17.276,13.286 17.906,12.242 17.906,11.072 C17.906,9.002 16.232,8.192 13.838,8.192 L10.328,8.192 L10.328,20 L14.108,20 Z M13.586,13.214 L11.84,13.214 L11.84,9.398 L13.64,9.398 C15.476,9.398 16.412,9.902 16.412,11.27 C16.412,12.476 15.584,13.214 13.586,13.214 Z M13.892,18.794 L11.84,18.794 L11.84,14.366 L13.892,14.366 C15.944,14.366 17.078,15.032 17.078,16.49 C17.078,18.074 15.908,18.794 13.892,18.794 Z" id="B" fill="#333333" fill-rule="nonzero"></path>
        </g>
        <g id="Group-5-Copy-3" transform="translate(428.000000, 152.000000)">
            <circle id="Oval-Copy-11" stroke="#4EAC58" stroke-width="2" transform="translate(14.000000, 14.000000) scale(-1, 1) translate(-14.000000, -14.000000) " cx="14" cy="14" r="14"></circle>
            <path d="M14.108,20 C16.736,20 18.572,18.866 18.572,16.544 C18.572,14.924 17.582,13.988 16.178,13.718 L16.178,13.646 C17.276,13.286 17.906,12.242 17.906,11.072 C17.906,9.002 16.232,8.192 13.838,8.192 L10.328,8.192 L10.328,20 L14.108,20 Z M13.586,13.214 L11.84,13.214 L11.84,9.398 L13.64,9.398 C15.476,9.398 16.412,9.902 16.412,11.27 C16.412,12.476 15.584,13.214 13.586,13.214 Z M13.892,18.794 L11.84,18.794 L11.84,14.366 L13.892,14.366 C15.944,14.366 17.078,15.032 17.078,16.49 C17.078,18.074 15.908,18.794 13.892,18.794 Z" id="B" fill="#333333" fill-rule="nonzero"></path>
        </g>
        <g id="Group-5-Copy-4" transform="translate(465.000000, 92.000000)">
            <circle id="Oval-Copy-11" stroke="#4EAC58" stroke-width="2" transform="translate(14.000000, 14.000000) scale(-1, 1) translate(-14.000000, -14.000000) " cx="14" cy="14" r="14"></circle>
            <path d="M14.108,20 C16.736,20 18.572,18.866 18.572,16.544 C18.572,14.924 17.582,13.988 16.178,13.718 L16.178,13.646 C17.276,13.286 17.906,12.242 17.906,11.072 C17.906,9.002 16.232,8.192 13.838,8.192 L10.328,8.192 L10.328,20 L14.108,20 Z M13.586,13.214 L11.84,13.214 L11.84,9.398 L13.64,9.398 C15.476,9.398 16.412,9.902 16.412,11.27 C16.412,12.476 15.584,13.214 13.586,13.214 Z M13.892,18.794 L11.84,18.794 L11.84,14.366 L13.892,14.366 C15.944,14.366 17.078,15.032 17.078,16.49 C17.078,18.074 15.908,18.794 13.892,18.794 Z" id="B" fill="#333333" fill-rule="nonzero"></path>
        </g>
        <g id="Group-5-Copy-5" transform="translate(493.000000, 136.000000)">
            <circle id="Oval-Copy-11" stroke="#4EAC58" stroke-width="2" transform="translate(14.000000, 14.000000) scale(-1, 1) translate(-14.000000, -14.000000) " cx="14" cy="14" r="14"></circle>
            <path d="M14.108,20 C16.736,20 18.572,18.866 18.572,16.544 C18.572,14.924 17.582,13.988 16.178,13.718 L16.178,13.646 C17.276,13.286 17.906,12.242 17.906,11.072 C17.906,9.002 16.232,8.192 13.838,8.192 L10.328,8.192 L10.328,20 L14.108,20 Z M13.586,13.214 L11.84,13.214 L11.84,9.398 L13.64,9.398 C15.476,9.398 16.412,9.902 16.412,11.27 C16.412,12.476 15.584,13.214 13.586,13.214 Z M13.892,18.794 L11.84,18.794 L11.84,14.366 L13.892,14.366 C15.944,14.366 17.078,15.032 17.078,16.49 C17.078,18.074 15.908,18.794 13.892,18.794 Z" id="B" fill="#333333" fill-rule="nonzero"></path>
        </g>
        <g id="Group-5-Copy-6" transform="translate(509.000000, 262.000000)">
            <circle id="Oval-Copy-11" stroke="#4EAC58" stroke-width="2" transform="translate(14.000000, 14.000000) scale(-1, 1) translate(-14.000000, -14.000000) " cx="14" cy="14" r="14"></circle>
            <path d="M14.108,20 C16.736,20 18.572,18.866 18.572,16.544 C18.572,14.924 17.582,13.988 16.178,13.718 L16.178,13.646 C17.276,13.286 17.906,12.242 17.906,11.072 C17.906,9.002 16.232,8.192 13.838,8.192 L10.328,8.192 L10.328,20 L14.108,20 Z M13.586,13.214 L11.84,13.214 L11.84,9.398 L13.64,9.398 C15.476,9.398 16.412,9.902 16.412,11.27 C16.412,12.476 15.584,13.214 13.586,13.214 Z M13.892,18.794 L11.84,18.794 L11.84,14.366 L13.892,14.366 C15.944,14.366 17.078,15.032 17.078,16.49 C17.078,18.074 15.908,18.794 13.892,18.794 Z" id="B" fill="#333333" fill-rule="nonzero"></path>
        </g>
        <g id="Group-5-Copy-7" transform="translate(309.000000, 273.000000)">
            <circle id="Oval-Copy-11" stroke="#4EAC58" stroke-width="2" transform="translate(14.000000, 14.000000) scale(-1, 1) translate(-14.000000, -14.000000) " cx="14" cy="14" r="14"></circle>
            <path d="M14.108,20 C16.736,20 18.572,18.866 18.572,16.544 C18.572,14.924 17.582,13.988 16.178,13.718 L16.178,13.646 C17.276,13.286 17.906,12.242 17.906,11.072 C17.906,9.002 16.232,8.192 13.838,8.192 L10.328,8.192 L10.328,20 L14.108,20 Z M13.586,13.214 L11.84,13.214 L11.84,9.398 L13.64,9.398 C15.476,9.398 16.412,9.902 16.412,11.27 C16.412,12.476 15.584,13.214 13.586,13.214 Z M13.892,18.794 L11.84,18.794 L11.84,14.366 L13.892,14.366 C15.944,14.366 17.078,15.032 17.078,16.49 C17.078,18.074 15.908,18.794 13.892,18.794 Z" id="B" fill="#333333" fill-rule="nonzero"></path>
        </g>
        <g id="arrow-pointer" transform="translate(421.859286, 132.384584) rotate(-250.000000) translate(-421.859286, -132.384584) translate(373.859286, 126.384584)">
            <polygon id="Rectangle" fill="#9A9FAF" transform="translate(90.000000, 6.000000) rotate(-45.000000) translate(-90.000000, -6.000000) " points="94 2 94 10 86 10"></polygon>
            <line x1="0" y1="6" x2="91.8367347" y2="6" id="Path-40" stroke="#9A9FAF" stroke-width="2" stroke-linecap="round" stroke-linejoin="round" stroke-dasharray="0,5"></line>
        </g>
    </g>
</svg>