<?xml version="1.0" encoding="UTF-8"?>
<svg width="792px" height="445px" viewBox="0 0 792 445" version="1.1" xmlns="http://www.w3.org/2000/svg" xmlns:xlink="http://www.w3.org/1999/xlink">
    <!-- Generator: Sketch 63 (92445) - https://sketch.com -->
    <title>roc-curve</title>
    <desc>Created with Sketch.</desc>
    <g id="roc-curve" stroke="none" stroke-width="1" fill="none" fill-rule="evenodd">
        <rect fill="#FFFFFF" x="0" y="0" width="792" height="445"></rect>
        <g id="axis/general" transform="translate(248.000000, 40.000000)" fill="#636F80" fill-rule="nonzero">
            <path id="Path-6-Copy" d="M0,0 L7,14 L1,14 L1,294 L281,294 L281,288 L295,295 L281,302 L281,296 L-1,296 L-1,14 L-7,14 L0,0 Z"></path>
        </g>
        <g id="axis/x-scale" transform="translate(244.000000, 336.000000)">
            <g id="0">
                <path d="M4.008,24.192 C6.04,24.192 7.272,22.288 7.272,18.864 C7.272,15.44 6.04,13.6 4.008,13.6 C1.96,13.6 0.728,15.44 0.728,18.864 C0.728,22.288 1.96,24.192 4.008,24.192 Z M4.008,23.12 C2.824,23.12 2.024,21.856 2.024,18.864 C2.024,15.872 2.824,14.672 4.008,14.672 C5.192,14.672 5.992,15.872 5.992,18.864 C5.992,21.856 5.192,23.12 4.008,23.12 Z" fill="#333333" fill-rule="nonzero"></path>
                <line x1="4" y1="0" x2="4" y2="8" id="Path-7" stroke="#636F80" stroke-width="2"></line>
            </g>
            <g id="1" transform="translate(48.483146, 0.000000)">
                <path d="M7.28,24 L7.28,22.864 L4.224,22.864 C3.696,22.864 3.072,22.896 2.512,22.944 C4.992,20.416 6.784,18.576 6.784,16.592 C6.784,14.8 5.6,13.6 3.712,13.6 C2.4,13.6 1.488,14.224 0.64,15.184 L1.392,15.904 C1.968,15.232 2.704,14.688 3.552,14.688 C4.848,14.688 5.488,15.504 5.488,16.672 C5.488,18.32 3.728,20.208 0.688,23.184 L0.688,24 L7.28,24 Z M11.984,24.192 C14.016,24.192 15.248,22.288 15.248,18.864 C15.248,15.44 14.016,13.6 11.984,13.6 C9.936,13.6 8.704,15.44 8.704,18.864 C8.704,22.288 9.936,24.192 11.984,24.192 Z M11.984,23.12 C10.8,23.12 10,21.856 10,18.864 C10,15.872 10.8,14.672 11.984,14.672 C13.168,14.672 13.968,15.872 13.968,18.864 C13.968,21.856 13.168,23.12 11.984,23.12 Z" id="20" fill="#333333" fill-rule="nonzero"></path>
                <line x1="8" y1="0" x2="8" y2="8" id="Path-7" stroke="#636F80" stroke-width="2"></line>
            </g>
            <g id="2" transform="translate(100.917603, 0.000000)">
                <path d="M6.16,24 L6.16,21.184 L7.552,21.184 L7.552,20.128 L6.16,20.128 L6.16,13.792 L4.688,13.792 L0.32,20.304 L0.32,21.184 L4.912,21.184 L4.912,24 L6.16,24 Z M4.912,20.128 L1.712,20.128 L4.096,16.656 C4.384,16.144 4.672,15.696 4.928,15.216 L4.992,15.216 C4.96,15.76 4.912,16.64 4.912,17.168 L4.912,20.128 Z M11.984,24.192 C14.016,24.192 15.248,22.288 15.248,18.864 C15.248,15.44 14.016,13.6 11.984,13.6 C9.936,13.6 8.704,15.44 8.704,18.864 C8.704,22.288 9.936,24.192 11.984,24.192 Z M11.984,23.12 C10.8,23.12 10,21.856 10,18.864 C10,15.872 10.8,14.672 11.984,14.672 C13.168,14.672 13.968,15.872 13.968,18.864 C13.968,21.856 13.168,23.12 11.984,23.12 Z" id="40" fill="#333333" fill-rule="nonzero"></path>
                <line x1="8" y1="0" x2="8" y2="8" id="Path-7" stroke="#636F80" stroke-width="2"></line>
            </g>
            <g id="3" transform="translate(153.352060, 0.000000)">
                <path d="M4.336,24.192 C5.984,24.192 7.36,22.864 7.36,20.912 C7.36,18.816 6.224,17.76 4.448,17.76 C3.616,17.76 2.704,18.272 2.064,19.072 C2.112,15.824 3.328,14.704 4.752,14.704 C5.392,14.704 6.032,15.024 6.432,15.52 L7.168,14.688 C6.608,14.064 5.808,13.6 4.704,13.6 C2.672,13.6 0.816,15.184 0.816,19.28 C0.816,22.56 2.336,24.192 4.336,24.192 Z M4.336,23.152 C3.056,23.152 2.272,22.096 2.096,20.112 C2.736,19.152 3.568,18.752 4.224,18.752 C5.488,18.752 6.112,19.584 6.112,20.912 C6.112,22.256 5.344,23.152 4.336,23.152 Z M11.984,24.192 C14.016,24.192 15.248,22.288 15.248,18.864 C15.248,15.44 14.016,13.6 11.984,13.6 C9.936,13.6 8.704,15.44 8.704,18.864 C8.704,22.288 9.936,24.192 11.984,24.192 Z M11.984,23.12 C10.8,23.12 10,21.856 10,18.864 C10,15.872 10.8,14.672 11.984,14.672 C13.168,14.672 13.968,15.872 13.968,18.864 C13.968,21.856 13.168,23.12 11.984,23.12 Z" id="60" fill="#333333" fill-rule="nonzero"></path>
                <line x1="8" y1="0" x2="8" y2="8" id="Path-7" stroke="#636F80" stroke-width="2"></line>
            </g>
            <g id="4" transform="translate(205.786517, 0.000000)">
                <path d="M4.048,24.192 C6.032,24.192 7.344,22.992 7.344,21.472 C7.344,20.096 6.48,19.376 5.568,18.848 L5.568,18.784 C6.208,18.304 6.976,17.392 6.976,16.32 C6.976,14.736 5.872,13.6 4.096,13.6 C2.448,13.6 1.2,14.656 1.2,16.224 C1.2,17.296 1.872,18.048 2.624,18.576 L2.624,18.64 C1.664,19.152 0.704,20.064 0.704,21.392 C0.704,23.008 2.128,24.192 4.048,24.192 Z M4.768,18.432 C3.536,17.952 2.416,17.44 2.416,16.224 C2.416,15.232 3.12,14.592 4.064,14.592 C5.184,14.592 5.84,15.392 5.84,16.384 C5.84,17.136 5.456,17.824 4.768,18.432 Z M4.08,23.2 C2.832,23.2 1.904,22.384 1.904,21.264 C1.904,20.336 2.512,19.584 3.312,19.056 C4.784,19.648 6.08,20.112 6.08,21.424 C6.08,22.48 5.264,23.2 4.08,23.2 Z M11.984,24.192 C14.016,24.192 15.248,22.288 15.248,18.864 C15.248,15.44 14.016,13.6 11.984,13.6 C9.936,13.6 8.704,15.44 8.704,18.864 C8.704,22.288 9.936,24.192 11.984,24.192 Z M11.984,23.12 C10.8,23.12 10,21.856 10,18.864 C10,15.872 10.8,14.672 11.984,14.672 C13.168,14.672 13.968,15.872 13.968,18.864 C13.968,21.856 13.168,23.12 11.984,23.12 Z" id="80" fill="#333333" fill-rule="nonzero"></path>
                <line x1="8" y1="0" x2="8" y2="8" id="Path-7" stroke="#636F80" stroke-width="2"></line>
            </g>
            <g id="5" transform="translate(255.269663, 0.000000)">
                <path d="M7.096,24 L7.096,22.896 L5,22.896 L5,13.792 L3.976,13.792 C3.416,14.128 2.744,14.384 1.8,14.544 L1.8,15.408 L3.672,15.408 L3.672,22.896 L1.336,22.896 L1.336,24 L7.096,24 Z M12.008,24.192 C14.04,24.192 15.272,22.288 15.272,18.864 C15.272,15.44 14.04,13.6 12.008,13.6 C9.96,13.6 8.728,15.44 8.728,18.864 C8.728,22.288 9.96,24.192 12.008,24.192 Z M12.008,23.12 C10.824,23.12 10.024,21.856 10.024,18.864 C10.024,15.872 10.824,14.672 12.008,14.672 C13.192,14.672 13.992,15.872 13.992,18.864 C13.992,21.856 13.192,23.12 12.008,23.12 Z M19.96,24.192 C21.992,24.192 23.224,22.288 23.224,18.864 C23.224,15.44 21.992,13.6 19.96,13.6 C17.912,13.6 16.68,15.44 16.68,18.864 C16.68,22.288 17.912,24.192 19.96,24.192 Z M19.96,23.12 C18.776,23.12 17.976,21.856 17.976,18.864 C17.976,15.872 18.776,14.672 19.96,14.672 C21.144,14.672 21.944,15.872 21.944,18.864 C21.944,21.856 21.144,23.12 19.96,23.12 Z" id="100" fill="#333333" fill-rule="nonzero"></path>
                <line x1="12" y1="0" x2="12" y2="8" id="Path-7" stroke="#636F80" stroke-width="2"></line>
            </g>
        </g>
        <g id="axis/y-scale" transform="translate(180.000000, 61.000000)">
            <g id="0" transform="translate(0.000000, 263.000000)">
                <path d="M48.032,16.192 C50.064,16.192 51.296,14.288 51.296,10.864 C51.296,7.44 50.064,5.6 48.032,5.6 C45.984,5.6 44.752,7.44 44.752,10.864 C44.752,14.288 45.984,16.192 48.032,16.192 Z M48.032,15.12 C46.848,15.12 46.048,13.856 46.048,10.864 C46.048,7.872 46.848,6.672 48.032,6.672 C49.216,6.672 50.016,7.872 50.016,10.864 C50.016,13.856 49.216,15.12 48.032,15.12 Z" fill="#333333" fill-rule="nonzero"></path>
                <line x1="63" y1="7" x2="63" y2="15" id="Path-7" stroke="#636F80" stroke-width="2" transform="translate(63.000000, 11.000000) rotate(-90.000000) translate(-63.000000, -11.000000) "></line>
            </g>
            <g id="1" transform="translate(0.000000, 210.212871)">
                <path d="M43.328,16 L43.328,14.864 L40.272,14.864 C39.744,14.864 39.12,14.896 38.56,14.944 C41.04,12.416 42.832,10.576 42.832,8.592 C42.832,6.8 41.648,5.6 39.76,5.6 C38.448,5.6 37.536,6.224 36.688,7.184 L37.44,7.904 C38.016,7.232 38.752,6.688 39.6,6.688 C40.896,6.688 41.536,7.504 41.536,8.672 C41.536,10.32 39.776,12.208 36.736,15.184 L36.736,16 L43.328,16 Z M48.032,16.192 C50.064,16.192 51.296,14.288 51.296,10.864 C51.296,7.44 50.064,5.6 48.032,5.6 C45.984,5.6 44.752,7.44 44.752,10.864 C44.752,14.288 45.984,16.192 48.032,16.192 Z M48.032,15.12 C46.848,15.12 46.048,13.856 46.048,10.864 C46.048,7.872 46.848,6.672 48.032,6.672 C49.216,6.672 50.016,7.872 50.016,10.864 C50.016,13.856 49.216,15.12 48.032,15.12 Z" id="20" fill="#333333" fill-rule="nonzero"></path>
                <line x1="63" y1="7" x2="63" y2="15" id="Path-7" stroke="#636F80" stroke-width="2" transform="translate(63.000000, 11.000000) rotate(-90.000000) translate(-63.000000, -11.000000) "></line>
            </g>
            <g id="2" transform="translate(0.000000, 157.737624)">
                <path d="M42.208,16 L42.208,13.184 L43.6,13.184 L43.6,12.128 L42.208,12.128 L42.208,5.792 L40.736,5.792 L36.368,12.304 L36.368,13.184 L40.96,13.184 L40.96,16 L42.208,16 Z M40.96,12.128 L37.76,12.128 L40.144,8.656 C40.432,8.144 40.72,7.696 40.976,7.216 L41.04,7.216 C41.008,7.76 40.96,8.64 40.96,9.168 L40.96,12.128 Z M48.032,16.192 C50.064,16.192 51.296,14.288 51.296,10.864 C51.296,7.44 50.064,5.6 48.032,5.6 C45.984,5.6 44.752,7.44 44.752,10.864 C44.752,14.288 45.984,16.192 48.032,16.192 Z M48.032,15.12 C46.848,15.12 46.048,13.856 46.048,10.864 C46.048,7.872 46.848,6.672 48.032,6.672 C49.216,6.672 50.016,7.872 50.016,10.864 C50.016,13.856 49.216,15.12 48.032,15.12 Z" id="40" fill="#333333" fill-rule="nonzero"></path>
                <line x1="63" y1="7" x2="63" y2="15" id="Path-7" stroke="#636F80" stroke-width="2" transform="translate(63.000000, 11.000000) rotate(-90.000000) translate(-63.000000, -11.000000) "></line>
            </g>
            <g id="3" transform="translate(0.000000, 105.262376)">
                <path d="M40.384,16.192 C42.032,16.192 43.408,14.864 43.408,12.912 C43.408,10.816 42.272,9.76 40.496,9.76 C39.664,9.76 38.752,10.272 38.112,11.072 C38.16,7.824 39.376,6.704 40.8,6.704 C41.44,6.704 42.08,7.024 42.48,7.52 L43.216,6.688 C42.656,6.064 41.856,5.6 40.752,5.6 C38.72,5.6 36.864,7.184 36.864,11.28 C36.864,14.56 38.384,16.192 40.384,16.192 Z M40.384,15.152 C39.104,15.152 38.32,14.096 38.144,12.112 C38.784,11.152 39.616,10.752 40.272,10.752 C41.536,10.752 42.16,11.584 42.16,12.912 C42.16,14.256 41.392,15.152 40.384,15.152 Z M48.032,16.192 C50.064,16.192 51.296,14.288 51.296,10.864 C51.296,7.44 50.064,5.6 48.032,5.6 C45.984,5.6 44.752,7.44 44.752,10.864 C44.752,14.288 45.984,16.192 48.032,16.192 Z M48.032,15.12 C46.848,15.12 46.048,13.856 46.048,10.864 C46.048,7.872 46.848,6.672 48.032,6.672 C49.216,6.672 50.016,7.872 50.016,10.864 C50.016,13.856 49.216,15.12 48.032,15.12 Z" id="60" fill="#333333" fill-rule="nonzero"></path>
                <line x1="63" y1="7" x2="63" y2="15" id="Path-7" stroke="#636F80" stroke-width="2" transform="translate(63.000000, 11.000000) rotate(-90.000000) translate(-63.000000, -11.000000) "></line>
            </g>
            <g id="4" transform="translate(0.000000, 52.787129)">
                <path d="M40.096,16.192 C42.08,16.192 43.392,14.992 43.392,13.472 C43.392,12.096 42.528,11.376 41.616,10.848 L41.616,10.784 C42.256,10.304 43.024,9.392 43.024,8.32 C43.024,6.736 41.92,5.6 40.144,5.6 C38.496,5.6 37.248,6.656 37.248,8.224 C37.248,9.296 37.92,10.048 38.672,10.576 L38.672,10.64 C37.712,11.152 36.752,12.064 36.752,13.392 C36.752,15.008 38.176,16.192 40.096,16.192 Z M40.816,10.432 C39.584,9.952 38.464,9.44 38.464,8.224 C38.464,7.232 39.168,6.592 40.112,6.592 C41.232,6.592 41.888,7.392 41.888,8.384 C41.888,9.136 41.504,9.824 40.816,10.432 Z M40.128,15.2 C38.88,15.2 37.952,14.384 37.952,13.264 C37.952,12.336 38.56,11.584 39.36,11.056 C40.832,11.648 42.128,12.112 42.128,13.424 C42.128,14.48 41.312,15.2 40.128,15.2 Z M48.032,16.192 C50.064,16.192 51.296,14.288 51.296,10.864 C51.296,7.44 50.064,5.6 48.032,5.6 C45.984,5.6 44.752,7.44 44.752,10.864 C44.752,14.288 45.984,16.192 48.032,16.192 Z M48.032,15.12 C46.848,15.12 46.048,13.856 46.048,10.864 C46.048,7.872 46.848,6.672 48.032,6.672 C49.216,6.672 50.016,7.872 50.016,10.864 C50.016,13.856 49.216,15.12 48.032,15.12 Z" id="80" fill="#333333" fill-rule="nonzero"></path>
                <line x1="63" y1="7" x2="63" y2="15" id="Path-7" stroke="#636F80" stroke-width="2" transform="translate(63.000000, 11.000000) rotate(-90.000000) translate(-63.000000, -11.000000) "></line>
            </g>
            <g id="5" transform="translate(0.000000, 0.311881)">
                <path d="M35.168,16 L35.168,14.896 L33.072,14.896 L33.072,5.792 L32.048,5.792 C31.488,6.128 30.816,6.384 29.872,6.544 L29.872,7.408 L31.744,7.408 L31.744,14.896 L29.408,14.896 L29.408,16 L35.168,16 Z M40.08,16.192 C42.112,16.192 43.344,14.288 43.344,10.864 C43.344,7.44 42.112,5.6 40.08,5.6 C38.032,5.6 36.8,7.44 36.8,10.864 C36.8,14.288 38.032,16.192 40.08,16.192 Z M40.08,15.12 C38.896,15.12 38.096,13.856 38.096,10.864 C38.096,7.872 38.896,6.672 40.08,6.672 C41.264,6.672 42.064,7.872 42.064,10.864 C42.064,13.856 41.264,15.12 40.08,15.12 Z M48.032,16.192 C50.064,16.192 51.296,14.288 51.296,10.864 C51.296,7.44 50.064,5.6 48.032,5.6 C45.984,5.6 44.752,7.44 44.752,10.864 C44.752,14.288 45.984,16.192 48.032,16.192 Z M48.032,15.12 C46.848,15.12 46.048,13.856 46.048,10.864 C46.048,7.872 46.848,6.672 48.032,6.672 C49.216,6.672 50.016,7.872 50.016,10.864 C50.016,13.856 49.216,15.12 48.032,15.12 Z" id="100" fill="#333333" fill-rule="nonzero"></path>
                <line x1="63" y1="7" x2="63" y2="15" id="Path-7" stroke="#636F80" stroke-width="2" transform="translate(63.000000, 11.000000) rotate(-90.000000) translate(-63.000000, -11.000000) "></line>
            </g>
        </g>
        <path d="M133.144,216 L133.144,205.504 L131.784,205.504 L131.784,210.496 C131.336,210.592 130.744,210.672 129.912,210.672 C128.28,210.672 127.4,210.112 127.4,208.352 L127.4,205.504 L126.072,205.504 L126.072,208.352 C126.072,210.88 127.368,211.776 129.784,211.776 C130.664,211.776 131.256,211.68 131.784,211.6 L131.784,216 L133.144,216 Z M136.024,219.344 C137.576,219.344 138.392,218.176 138.936,216.64 L141.864,208.224 L140.568,208.224 L139.176,212.512 C138.968,213.2 138.744,214 138.536,214.704 L138.472,214.704 C138.216,213.984 137.96,213.184 137.704,212.512 L136.136,208.224 L134.76,208.224 L137.88,216.016 L137.704,216.592 C137.384,217.552 136.824,218.24 135.96,218.24 C135.768,218.24 135.576,218.208 135.384,218.144 L135.096,219.184 C135.352,219.28 135.656,219.344 136.024,219.344 Z M146.472,216 C148.28,216 149.544,215.312 149.544,213.776 C149.544,212.656 148.792,212.112 147.928,211.92 L147.928,211.856 C148.728,211.616 149.224,211.056 149.224,210.192 C149.224,208.784 148.056,208.224 146.36,208.224 L143.368,208.224 L143.368,216 L146.472,216 Z M146.136,211.456 L144.648,211.456 L144.648,209.2 L146.216,209.2 C147.432,209.2 147.944,209.616 147.944,210.32 C147.944,211.024 147.432,211.456 146.136,211.456 Z M146.344,215.008 L144.648,215.008 L144.648,212.464 L146.248,212.464 C147.576,212.464 148.264,212.928 148.264,213.696 C148.264,214.528 147.64,215.008 146.344,215.008 Z M154.568,216.192 C155.496,216.192 156.376,215.84 157.08,215.2 L156.504,214.352 C156.04,214.768 155.4,215.088 154.68,215.088 C153.256,215.088 152.296,213.904 152.296,212.128 C152.296,210.336 153.32,209.136 154.728,209.136 C155.352,209.136 155.848,209.376 156.28,209.776 L156.936,208.944 C156.392,208.432 155.688,208.032 154.664,208.032 C152.664,208.032 150.92,209.52 150.92,212.128 C150.92,214.704 152.504,216.192 154.568,216.192 Z M161.672,216 L161.672,209.296 L164.264,209.296 L164.264,208.224 L157.736,208.224 L157.736,209.296 L160.344,209.296 L160.344,216 L161.672,216 Z M169.096,216 C170.904,216 172.168,215.312 172.168,213.776 C172.168,212.656 171.416,212.112 170.552,211.92 L170.552,211.856 C171.352,211.616 171.848,211.056 171.848,210.192 C171.848,208.784 170.68,208.224 168.984,208.224 L165.992,208.224 L165.992,216 L169.096,216 Z M168.76,211.456 L167.272,211.456 L167.272,209.2 L168.84,209.2 C170.056,209.2 170.568,209.616 170.568,210.32 C170.568,211.024 170.056,211.456 168.76,211.456 Z M168.968,215.008 L167.272,215.008 L167.272,212.464 L168.872,212.464 C170.2,212.464 170.888,212.928 170.888,213.696 C170.888,214.528 170.264,215.008 168.968,215.008 Z M175.544,216 L178.312,211.616 C178.616,211.136 179.016,210.432 179.32,209.84 L179.384,209.84 C179.304,210.96 179.256,211.92 179.256,212.752 L179.256,216 L180.52,216 L180.52,208.224 L179.112,208.224 L176.328,212.624 C176.024,213.104 175.624,213.824 175.32,214.384 L175.256,214.384 C175.336,213.28 175.4,212.304 175.4,211.472 L175.4,208.224 L174.12,208.224 L174.12,216 L175.544,216 Z M186.184,216 L186.184,209.296 L188.776,209.296 L188.776,208.224 L182.248,208.224 L182.248,209.296 L184.856,209.296 L184.856,216 L186.184,216 Z M193.416,216.192 C194.488,216.192 195.32,215.872 195.992,215.392 L195.528,214.544 C194.984,214.912 194.328,215.12 193.576,215.12 C192.104,215.12 191.128,214.064 191.016,212.464 L196.248,212.464 C196.296,212.208 196.312,211.968 196.312,211.68 C196.312,209.44 195.176,208.032 193.192,208.032 C191.416,208.032 189.704,209.584 189.704,212.112 C189.704,214.688 191.336,216.192 193.416,216.192 Z M195.128,211.44 L191.016,211.44 C191.176,209.952 192.136,209.088 193.224,209.088 C194.408,209.088 195.128,209.904 195.128,211.44 Z M197.784,216.144 C198.92,216.144 199.624,215.296 199.848,213.6 C200.024,212.176 200.184,210.736 200.36,209.296 L202.76,209.296 L202.76,216 L204.088,216 L204.088,208.224 L199.304,208.224 C199.112,209.904 198.92,211.584 198.712,213.264 C198.568,214.368 198.216,214.864 197.672,214.864 C197.528,214.864 197.416,214.832 197.32,214.8 L197.064,216.016 C197.288,216.112 197.48,216.144 197.784,216.144 Z M209.496,216 C211.336,216 212.584,215.248 212.584,213.52 C212.584,211.808 211.336,211.088 209.496,211.088 L208.04,211.088 L208.04,208.224 L206.712,208.224 L206.712,216 L209.496,216 Z M209.352,214.944 L208.04,214.944 L208.04,212.112 L209.352,212.112 C210.664,212.112 211.288,212.544 211.288,213.52 C211.288,214.496 210.664,214.944 209.352,214.944 Z M215.896,216 L215.896,212.544 L219.624,212.544 L219.624,216 L220.952,216 L220.952,208.224 L219.624,208.224 L219.624,211.376 L215.896,211.376 L215.896,208.224 L214.568,208.224 L214.568,216 L215.896,216 Z M226.584,216.192 C228.488,216.192 230.2,214.704 230.2,212.128 C230.2,209.52 228.488,208.032 226.584,208.032 C224.68,208.032 222.984,209.52 222.984,212.128 C222.984,214.704 224.68,216.192 226.584,216.192 Z M226.584,215.088 C225.256,215.088 224.36,213.904 224.36,212.128 C224.36,210.336 225.256,209.136 226.584,209.136 C227.928,209.136 228.824,210.336 228.824,212.128 C228.824,213.904 227.928,215.088 226.584,215.088 Z M235.304,216.192 C236.232,216.192 237.112,215.84 237.816,215.2 L237.24,214.352 C236.776,214.768 236.136,215.088 235.416,215.088 C233.992,215.088 233.032,213.904 233.032,212.128 C233.032,210.336 234.056,209.136 235.464,209.136 C236.088,209.136 236.584,209.376 237.016,209.776 L237.672,208.944 C237.128,208.432 236.424,208.032 235.4,208.032 C233.4,208.032 231.656,209.52 231.656,212.128 C231.656,214.704 233.24,216.192 235.304,216.192 Z M242.408,216 L242.408,209.296 L245,209.296 L245,208.224 L238.472,208.224 L238.472,209.296 L241.08,209.296 L241.08,216 L242.408,216 Z M249.512,216 C251.352,216 252.6,215.248 252.6,213.52 C252.6,211.808 251.352,211.088 249.512,211.088 L248.056,211.088 L248.056,208.224 L246.728,208.224 L246.728,216 L249.512,216 Z M249.368,214.944 L248.056,214.944 L248.056,212.112 L249.368,212.112 C250.68,212.112 251.304,212.544 251.304,213.52 C251.304,214.496 250.68,214.944 249.368,214.944 Z" id="Чувствительность" fill="#333333" fill-rule="nonzero" transform="translate(189.336000, 212.424000) rotate(-90.000000) translate(-189.336000, -212.424000) "></path>
        <path d="M327.408,399.192 C328.752,399.192 329.776,398.648 330.624,397.672 L329.888,396.872 C329.216,397.608 328.464,398.008 327.456,398.008 C325.472,398.008 324.224,396.36 324.224,393.72 C324.224,391.112 325.536,389.496 327.504,389.496 C328.4,389.496 329.088,389.864 329.648,390.44 L330.384,389.608 C329.76,388.92 328.768,388.312 327.488,388.312 C324.816,388.312 322.832,390.376 322.832,393.752 C322.832,397.176 324.784,399.192 327.408,399.192 Z M333.776,399 L333.776,392.296 L337.344,392.296 L337.344,399 L338.672,399 L338.672,391.224 L332.448,391.224 L332.448,399 L333.776,399 Z M344.432,399.192 C345.504,399.192 346.336,398.872 347.008,398.392 L346.544,397.544 C346,397.912 345.344,398.12 344.592,398.12 C343.12,398.12 342.144,397.064 342.032,395.464 L347.264,395.464 C347.312,395.208 347.328,394.968 347.328,394.68 C347.328,392.44 346.192,391.032 344.208,391.032 C342.432,391.032 340.72,392.584 340.72,395.112 C340.72,397.688 342.352,399.192 344.432,399.192 Z M346.144,394.44 L342.032,394.44 C342.192,392.952 343.152,392.088 344.24,392.088 C345.424,392.088 346.144,392.904 346.144,394.44 Z M356.352,401.752 L356.496,398.76 L356.496,397.912 L355.36,397.912 L355.36,391.224 L354.032,391.224 L354.032,397.912 L350.56,397.912 L350.56,391.224 L349.232,391.224 L349.232,399 L355.216,399 L355.216,401.752 L356.352,401.752 Z M359.536,399 L362.304,394.616 C362.608,394.136 363.008,393.432 363.312,392.84 L363.376,392.84 C363.296,393.96 363.248,394.92 363.248,395.752 L363.248,399 L364.512,399 L364.512,391.224 L363.104,391.224 L360.32,395.624 C360.016,396.104 359.616,396.824 359.312,397.384 L359.248,397.384 C359.328,396.28 359.392,395.304 359.392,394.472 L359.392,391.224 L358.112,391.224 L358.112,399 L359.536,399 Z M372.352,402.28 L372.352,399.784 L372.32,398.632 C372.816,398.984 373.36,399.192 373.856,399.192 C375.44,399.192 376.816,397.64 376.816,395 C376.816,392.584 375.824,391.032 374,391.032 C373.424,391.032 372.8,391.272 372.32,391.624 L372.352,390.44 L372.352,387.608 L371.056,387.608 L371.056,390.44 L371.088,391.576 C370.624,391.272 370.128,391.032 369.52,391.032 C367.952,391.032 366.576,392.6 366.576,395.128 C366.576,397.72 367.744,399.192 369.52,399.192 C370.128,399.192 370.656,398.936 371.088,398.616 L371.056,399.784 L371.056,402.28 L372.352,402.28 Z M369.824,398.072 C368.624,398.072 367.952,396.968 367.952,395.112 C367.952,393.336 368.736,392.152 369.76,392.152 C370.208,392.152 370.656,392.28 371.088,392.664 L371.088,397.512 C370.656,397.944 370.272,398.072 369.824,398.072 Z M373.616,398.072 C373.28,398.072 372.784,397.96 372.32,397.544 L372.32,392.68 C372.8,392.264 373.232,392.152 373.664,392.152 C374.928,392.152 375.456,393.288 375.456,395 C375.456,396.92 374.704,398.072 373.616,398.072 Z M380.32,399 L383.088,394.616 C383.392,394.136 383.792,393.432 384.096,392.84 L384.16,392.84 C384.08,393.96 384.032,394.92 384.032,395.752 L384.032,399 L385.296,399 L385.296,391.224 L383.888,391.224 L381.104,395.624 C380.8,396.104 380.4,396.824 380.096,397.384 L380.032,397.384 C380.112,396.28 380.176,395.304 380.176,394.472 L380.176,391.224 L378.896,391.224 L378.896,399 L380.32,399 Z M393.504,399 L393.504,391.224 L392.176,391.224 L392.176,394.84 C391.728,394.936 391.376,394.984 390.912,394.984 C389.504,394.984 388.88,394.504 388.88,393.352 L388.88,391.224 L387.552,391.224 L387.552,393.352 C387.552,395.288 388.688,396.072 390.656,396.072 C391.344,396.072 391.632,396.008 392.176,395.912 L392.176,399 L393.504,399 Z M397.456,399 L397.456,395.544 L401.184,395.544 L401.184,399 L402.512,399 L402.512,391.224 L401.184,391.224 L401.184,394.376 L397.456,394.376 L397.456,391.224 L396.128,391.224 L396.128,399 L397.456,399 Z M408.144,399.192 C410.048,399.192 411.76,397.704 411.76,395.128 C411.76,392.52 410.048,391.032 408.144,391.032 C406.24,391.032 404.544,392.52 404.544,395.128 C404.544,397.704 406.24,399.192 408.144,399.192 Z M408.144,398.088 C406.816,398.088 405.92,396.904 405.92,395.128 C405.92,393.336 406.816,392.136 408.144,392.136 C409.488,392.136 410.384,393.336 410.384,395.128 C410.384,396.904 409.488,398.088 408.144,398.088 Z M416.864,399.192 C417.792,399.192 418.672,398.84 419.376,398.2 L418.8,397.352 C418.336,397.768 417.696,398.088 416.976,398.088 C415.552,398.088 414.592,396.904 414.592,395.128 C414.592,393.336 415.616,392.136 417.024,392.136 C417.648,392.136 418.144,392.376 418.576,392.776 L419.232,391.944 C418.688,391.432 417.984,391.032 416.96,391.032 C414.96,391.032 413.216,392.52 413.216,395.128 C413.216,397.704 414.8,399.192 416.864,399.192 Z M423.968,399 L423.968,392.296 L426.56,392.296 L426.56,391.224 L420.032,391.224 L420.032,392.296 L422.64,392.296 L422.64,399 L423.968,399 Z M431.072,399 C432.912,399 434.16,398.248 434.16,396.52 C434.16,394.808 432.912,394.088 431.072,394.088 L429.616,394.088 L429.616,391.224 L428.288,391.224 L428.288,399 L431.072,399 Z M430.928,397.944 L429.616,397.944 L429.616,395.112 L430.928,395.112 C432.24,395.112 432.864,395.544 432.864,396.52 C432.864,397.496 432.24,397.944 430.928,397.944 Z" id="Специфичность" fill="#333333" fill-rule="nonzero" transform="translate(378.496000, 394.944000) rotate(-360.000000) translate(-378.496000, -394.944000) "></path>
        <line x1="249.5" y1="71.5" x2="511.5" y2="71.5" id="Line" stroke="#9A9FAF" stroke-width="2" stroke-dasharray="6"></line>
        <line x1="511.5" y1="334.5" x2="511.5" y2="72.5" id="Line-2" stroke="#9A9FAF" stroke-width="2" stroke-dasharray="6"></line>
        <line x1="248" y1="335.667" x2="511" y2="72" id="Stroke-3" stroke="#F7931E" stroke-width="2"></line>
        <path d="M248,336 C248,74.8214124 253.262262,72 512,72" id="Stroke-1" stroke="#73B0DE" stroke-width="3"></path>
    </g>
</svg>